<svg xmlns="http://www.w3.org/2000/svg" viewBox="0 0 50 43" enable-background="new 0 0 50 43"><style type="text/css">.st0{opacity:0.15;} .st1{fill:#1F1F28;} .st2{fill-rule:evenodd;clip-rule:evenodd;fill:#FFFFFF;}</style><path d="M26.1 43L49.2 3H3z" class="st0"/><path d="M23.1 40L46.2 0H0z" class="st1"/><path d="M29.4 7.4c0-.9-.8-1.7-1.7-1.7-.9 0-1.7.8-1.7 1.7 0 0 0 0 0 .1l-7.5 2.4c-.3-.5-.8-.8-1.4-.8-.9 0-1.7.8-1.7 1.7 0 .9.8 1.7 1.7 1.7.2 0 .4 0 .5-.1l4.9 6.2c-.1.2-.1.4-.1.7 0 .9.8 1.7 1.7 1.7.9 0 1.7-.8 1.7-1.7 0-.5-.2-1-.6-1.3l2.6-8.9c.9-.1 1.6-.8 1.6-1.7zm-5.3 10.2c-.3 0-.5.1-.8.2l-4.8-6.1c.1-.2.2-.5.2-.7l7.7-2.5c.1.1.2.2.3.2l-2.6 8.9z" class="st2"/></svg>